<?xml version="1.0" encoding="UTF-8" standalone="no"?>
<!-- Created with Inkscape (http://www.inkscape.org/) -->

<svg
   xmlns:osb="http://www.openswatchbook.org/uri/2009/osb"
   xmlns:dc="http://purl.org/dc/elements/1.1/"
   xmlns:cc="http://creativecommons.org/ns#"
   xmlns:rdf="http://www.w3.org/1999/02/22-rdf-syntax-ns#"
   xmlns:svg="http://www.w3.org/2000/svg"
   xmlns="http://www.w3.org/2000/svg"
   xmlns:sodipodi="http://sodipodi.sourceforge.net/DTD/sodipodi-0.dtd"
   xmlns:inkscape="http://www.inkscape.org/namespaces/inkscape"
   width="58.444443mm"
   height="18.0329mm"
   viewBox="0 0 207.08661 63.896102"
   id="svg2"
   version="1.1"
   inkscape:version="0.91 r13725"
   sodipodi:docname="logo.svg">
  <defs
     id="defs4">
    <linearGradient
       id="linearGradient5708"
       osb:paint="solid">
      <stop
         style="stop-color:#000000;stop-opacity:1;"
         offset="0"
         id="stop5710" />
    </linearGradient>
    <linearGradient
       id="linearGradient4221"
       osb:paint="solid">
      <stop
         style="stop-color:#5b5b5b;stop-opacity:1;"
         offset="0"
         id="stop4223" />
    </linearGradient>
  </defs>
  <sodipodi:namedview
     id="base"
     pagecolor="#ffffff"
     bordercolor="#666666"
     borderopacity="1.0"
     inkscape:pageopacity="0.0"
     inkscape:pageshadow="2"
     inkscape:zoom="3.1586083"
     inkscape:cx="35.717263"
     inkscape:cy="-0.61917034"
     inkscape:document-units="px"
     inkscape:current-layer="layer1"
     showgrid="false"
     inkscape:window-width="1920"
     inkscape:window-height="1039"
     inkscape:window-x="0"
     inkscape:window-y="20"
     inkscape:window-maximized="0"
     fit-margin-top="1"
     fit-margin-left="1"
     fit-margin-right="1"
     fit-margin-bottom="1" />
  <metadata
     id="metadata7">
    <rdf:RDF>
      <cc:Work
         rdf:about="">
        <dc:format>image/svg+xml</dc:format>
        <dc:type
           rdf:resource="http://purl.org/dc/dcmitype/StillImage" />
        <dc:title />
      </cc:Work>
    </rdf:RDF>
  </metadata>
  <g
     inkscape:label="Layer 1"
     inkscape:groupmode="layer"
     id="layer1"
     transform="translate(3.5433036,-992.00939)">
    <flowRoot
       xml:space="preserve"
       id="flowRoot4136"
       style="font-style:normal;font-variant:normal;font-weight:900;font-stretch:normal;font-size:40px;line-height:125%;font-family:Lovelo;-inkscape-font-specification:'Lovelo Heavy';letter-spacing:0px;word-spacing:0px;fill:#000000;fill-opacity:1;stroke:none;stroke-width:1px;stroke-linecap:butt;stroke-linejoin:miter;stroke-opacity:1"><flowRegion
         id="flowRegion4138"><rect
           id="rect4140"
           width="252.85715"
           height="70.714287"
           x="88.571426"
           y="96.647919"
           style="font-style:normal;font-variant:normal;font-weight:900;font-stretch:normal;font-family:Lovelo;-inkscape-font-specification:'Lovelo Heavy'" /></flowRegion><flowPara
         id="flowPara4142" /></flowRoot>    <rect
       style="opacity:1;fill:#305571;fill-opacity:1;stroke:none;stroke-width:1.47275484;stroke-linecap:butt;stroke-linejoin:miter;stroke-miterlimit:0;stroke-dasharray:none;stroke-opacity:0.41875"
       id="rect4235"
       width="200"
       height="56.80949"
       x="3.5075684e-06"
       y="995.55267"
       ry="0.62820184" />
    <path
       inkscape:connector-curvature="0"
       id="path4167-5"
       d="m 175.41261,1006.1934 -14.42022,35.0545 7.75906,0 1.3437,-3.6426 11.35319,0 1.38741,3.6426 7.71537,0 -14.42023,-35.0545 z m -66.51875,0.663 c -23.569609,0 -23.569609,34.8651 0,34.8651 23.56958,0 23.56958,-34.8651 0,-34.8651 z m 19.36898,0.046 0,34.3454 6.94793,0 0,-18.8762 8.76684,9.0824 8.76684,-9.0824 -0.0492,18.8762 6.94793,0 0,-34.3454 -2.15756,0 c -16.98166,27.7767 -12.46121,0 -29.22282,0 z m -105.352322,0.522 -13.4616045,33.8234 7.0899415,0 11.325887,-28.4575 0,16.6772 c 0,16.084 24.76565,16.084 24.76565,0 l 0,-15.2798 7.475026,0 0,27.0601 6.852338,0 0,-27.0601 8.52651,0 1.556727,0 0,27.0601 6.852338,0 0,-27.0601 8.526497,0 0,-6.7171 -16.935562,0 -22.853874,0 0,-0.046 -6.803187,0 0,21.9968 c 0,7.0959 -11.112852,7.0959 -11.112852,0 l 0,-21.9968 -4.713893,0 -2.135718,0 -4.954224,0 z m 85.983342,6.3845 c 13.70101,0 13.70101,20.9089 0,20.9089 -13.701042,0 -13.701042,-20.9089 0,-20.9089 z m 66.9011,8.6574 3.11346,8.7983 -6.32251,0 z"
       style="font-style:normal;font-variant:normal;font-weight:900;font-stretch:normal;font-size:medium;line-height:125%;font-family:Lovelo;-inkscape-font-specification:'Lovelo Heavy';text-align:center;letter-spacing:-4.20000029px;word-spacing:0px;baseline-shift:baseline;text-anchor:middle;fill:#f1f6f9;fill-opacity:1;stroke:#305571;stroke-width:2.41415787;stroke-linecap:butt;stroke-linejoin:miter;stroke-miterlimit:8.60000038;stroke-dasharray:none;stroke-dashoffset:0;stroke-opacity:1"
       sodipodi:nodetypes="cccccccccsssccccccccccccccccssccccccccccccccccsscccccssscccc" />
  </g>
</svg>
